<svg width="128" height="31" viewBox="0 0 128 31" fill="none" xmlns="http://www.w3.org/2000/svg">
<path d="M61.4121 4.97111C61.4121 3.19426 62.8026 1.75586 64.5722 1.75586C66.3419 1.75586 67.7745 3.19426 67.7745 4.97111C67.7745 6.74796 66.3419 8.14406 64.5722 8.14406C62.8026 8.14406 61.4121 6.72681 61.4121 4.97111Z" fill="black"/>
<path d="M105.211 4.97111C105.211 3.19426 106.601 1.75586 108.371 1.75586C110.141 1.75586 111.573 3.19426 111.573 4.97111C111.573 6.74796 110.141 8.14406 108.371 8.14406C106.601 8.14406 105.211 6.72681 105.211 4.97111Z" fill="black"/>
<path d="M44.8531 8.50373C44.8531 8.16528 45.148 7.86914 45.4851 7.86914H49.2351C49.5722 7.86914 49.8671 8.16528 49.8671 8.50373V14.0881C50.2674 13.8554 51.5315 13.4535 52.6691 13.4535C56.9247 13.4535 59.3896 16.4149 59.3896 20.5821C59.3896 24.4954 56.5244 27.7106 52.6902 27.7106C49.7197 27.7106 48.1607 25.5742 48.1607 25.5742L47.7604 26.6953C47.634 27.076 47.3812 27.3722 47.0441 27.3722H45.4641C45.127 27.3722 44.832 27.076 44.832 26.7376V8.50373H44.8531ZM52.0582 23.3108C53.6171 23.3108 54.7969 22.0839 54.7969 20.5186C54.7969 18.9956 53.6171 17.811 52.0582 17.811C50.4992 17.811 49.3615 18.9956 49.3615 20.5186C49.3405 22.1051 50.4992 23.3108 52.0582 23.3108Z" fill="black"/>
<path d="M62.1074 14.4266C62.1074 14.0458 62.4024 13.792 62.7394 13.792H66.4684C66.8055 13.792 67.1004 14.067 67.1004 14.4266V26.7165C67.1004 27.0549 66.8055 27.351 66.4684 27.351H62.7394C62.4024 27.351 62.1074 27.0549 62.1074 26.7165V14.4266Z" fill="black"/>
<path d="M70.7441 14.4268C70.7441 14.0461 71.0391 13.7922 71.3762 13.7922H72.9562C73.1669 13.7922 73.4618 13.9614 73.5672 14.1941L74.1149 15.5479C74.8523 14.7229 76.4113 13.4326 78.8762 13.4326C83.0686 13.4326 85.3017 16.6479 85.3017 20.5189V26.6955C85.3017 27.034 85.0068 27.3301 84.6697 27.3301H81.0461C80.6669 27.3301 80.4141 27.034 80.4141 26.6955V20.3496C80.4141 18.9958 79.6346 17.8113 78.1177 17.8113C76.7694 17.8113 75.5475 18.8055 75.5475 20.1804V26.6955C75.5475 26.9917 75.4211 27.3301 74.9366 27.3301H71.3762C71.0391 27.3301 70.7441 27.034 70.7441 26.6955V14.4268Z" fill="black"/>
<path d="M88.6094 8.50373C88.6094 8.16528 88.9043 7.86914 89.2414 7.86914H92.9914C93.3285 7.86914 93.6234 8.16528 93.6234 8.50373V18.9321L97.7105 14.1727C97.9212 13.9612 98.1529 13.7708 98.5532 13.7708H102.345C102.914 13.7708 103.23 14.3419 102.851 14.8285L98.3847 20.0321L103.799 26.3568C104.178 26.801 103.862 27.3722 103.293 27.3722H98.7217C98.5953 27.3722 98.3215 27.2453 98.2161 27.0972L93.6234 21.1955V26.7376C93.6234 27.076 93.3285 27.3722 92.9914 27.3722H89.2414C88.9043 27.3722 88.6094 27.076 88.6094 26.7376V8.50373Z" fill="black"/>
<path d="M105.885 14.4266C105.885 14.0458 106.18 13.792 106.517 13.792H110.246C110.583 13.792 110.878 14.067 110.878 14.4266V26.7165C110.878 27.0549 110.583 27.351 110.246 27.351H106.517C106.18 27.351 105.885 27.0549 105.885 26.7165V14.4266Z" fill="black"/>
<path d="M120.527 13.4326C124.382 13.4326 127.563 16.6902 127.563 20.5189C127.563 24.4322 124.382 27.6897 120.527 27.6897C116.671 27.6897 113.49 24.4322 113.49 20.5189C113.49 16.6902 116.671 13.4326 120.527 13.4326ZM120.527 23.3111C122.023 23.3111 123.202 22.063 123.202 20.5189C123.202 19.017 122.023 17.8113 120.527 17.8113C119.031 17.8113 117.851 19.0382 117.851 20.5189C117.851 22.063 119.031 23.3111 120.527 23.3111Z" fill="black"/>
<path d="M26.3975 30.1218H10.7654C10.0281 30.1218 9.41713 29.5084 9.41713 28.768V21.301H1.34831C0.610955 21.301 0 20.6876 0 19.9473C0 16.6262 1.05337 13.5591 2.97051 11.3591C4.63483 9.43422 6.84691 8.24966 9.3118 7.93236V1.35379C9.3118 0.613436 9.92275 0 10.6601 0H16.7065C19.7191 0 22.4789 1.20572 24.4593 3.38447C25.639 4.67481 26.4817 6.24013 26.9242 7.89006C33.2865 8.44003 37.1629 13.8975 37.1629 18.9742C37.184 25.2143 32.4438 30.1218 26.3975 30.1218ZM12.1138 27.4142H26.3975C30.927 27.4142 34.4874 23.7125 34.4874 18.9742C34.4874 15.2936 31.7907 11.3591 27.3034 10.6611C27.3034 15.7801 23.2374 21.301 16.7065 21.301H12.1138V27.4142ZM2.75983 18.5935H16.7065C19.9087 18.5935 24.6278 16.0763 24.6278 10.6399C24.6278 10.5976 24.6278 10.5765 24.6278 10.5342H10.6601C6.42556 10.5553 3.26545 13.8552 2.75983 18.5935ZM12.0084 7.84775H24.1011C23.0267 5.05556 20.4143 2.70758 16.7065 2.70758H12.0084V7.84775Z" fill="black"/>
</svg>
